<?xml version="1.0" encoding="UTF-8" standalone="no"?>
<!DOCTYPE svg PUBLIC "-//W3C//DTD SVG 1.1//EN" "http://www.w3.org/Graphics/SVG/1.1/DTD/svg11.dtd">
<svg width="100%" height="100%" viewBox="0 0 3000 2000" version="1.1" xmlns="http://www.w3.org/2000/svg" xmlns:xlink="http://www.w3.org/1999/xlink" xml:space="preserve" xmlns:serif="http://www.serif.com/" style="fill-rule:evenodd;clip-rule:evenodd;stroke-linecap:round;stroke-linejoin:round;stroke-miterlimit:1.5;">
    <g transform="matrix(1,0,0,1,-47.909383,-2.947319)">
        <g transform="matrix(1.321647,0,0,1.321647,-619.328517,-109.41586)">
            <g transform="matrix(3.583433,0,0,2.412271,-3559.683995,-1193.8896)">
                <path d="M1389.881,926.654C1381.149,926.654 1373.439,923.802 1366.751,918.097C1360.062,912.39 1354.807,904.543 1350.985,894.557C1347.163,884.569 1345.253,873.089 1345.253,860.118C1345.253,846.987 1347.163,835.429 1350.985,825.443C1354.807,815.454 1360.062,807.608 1366.751,801.903C1373.439,796.196 1381.123,793.342 1389.8,793.342C1398.478,793.342 1406.151,796.196 1412.82,801.903C1419.49,807.608 1424.745,815.454 1428.585,825.443C1432.427,835.429 1434.348,846.987 1434.348,860.118C1434.348,873.089 1432.462,884.579 1428.689,894.587C1424.916,904.596 1419.687,912.442 1413.004,918.127C1406.32,923.812 1398.613,926.654 1389.881,926.654ZM1389.881,905.036C1395.487,905.036 1400.441,903.108 1404.745,899.252C1409.05,895.397 1412.419,890.112 1414.851,883.399C1417.285,876.686 1418.502,868.926 1418.502,860.118C1418.502,851.311 1417.285,843.513 1414.851,836.725C1412.419,829.934 1409.05,824.609 1404.745,820.751C1400.441,816.89 1395.487,814.96 1389.881,814.96C1384.276,814.96 1379.319,816.89 1375.01,820.751C1370.701,824.609 1367.306,829.934 1364.823,836.725C1362.34,843.513 1361.099,851.311 1361.099,860.118C1361.099,868.926 1362.34,876.686 1364.823,883.399C1367.306,890.112 1370.701,895.397 1375.01,899.252C1379.319,903.108 1384.276,905.036 1389.881,905.036Z" style="fill-rule:nonzero;"/>
            </g>
            <g transform="matrix(3.583433,0,0,2.412271,-3559.683995,-1193.8896)">
                <path d="M1466.849,843.544C1466.849,833.936 1468.439,825.329 1471.62,817.722C1474.8,810.116 1479.085,804.071 1484.474,799.587C1489.864,795.103 1495.793,792.861 1502.261,792.861C1508.729,792.861 1513.553,794.423 1516.733,797.545C1519.913,800.668 1521.126,804.391 1520.371,808.715C1520.048,810.957 1519.428,812.678 1518.512,813.879C1517.596,815.08 1516.545,815.841 1515.359,816.161C1514.173,816.481 1512.879,816.401 1511.478,815.921C1504.579,813.839 1498.381,813.679 1492.883,815.44C1487.385,817.202 1483.046,820.485 1479.866,825.289C1476.686,830.093 1475.096,836.178 1475.096,843.544L1466.849,843.544ZM1467.011,925.694C1464.424,925.694 1462.43,924.693 1461.028,922.691C1459.627,920.689 1458.926,917.687 1458.926,913.683L1458.926,806.313C1458.926,802.47 1459.627,799.507 1461.028,797.425C1462.43,795.344 1464.424,794.303 1467.011,794.303C1469.706,794.303 1471.727,795.304 1473.075,797.305C1474.422,799.307 1475.096,802.309 1475.096,806.313L1475.096,913.683C1475.096,917.527 1474.422,920.489 1473.075,922.571C1471.727,924.653 1469.706,925.694 1467.011,925.694Z" style="fill-rule:nonzero;"/>
            </g>
            <g transform="matrix(3.583433,0,0,2.412271,-3559.683995,-1193.8896)">
                <path d="M1581.978,926.654C1573.57,926.654 1566.024,923.732 1559.341,917.887C1552.657,912.042 1547.375,904.075 1543.494,893.987C1539.614,883.898 1537.619,872.529 1537.511,859.878L1537.511,750.346C1537.511,746.662 1538.293,743.7 1539.856,741.458C1541.419,739.216 1543.386,738.095 1545.758,738.095C1548.237,738.095 1550.232,739.216 1551.741,741.458C1553.25,743.7 1554.005,746.662 1554.005,750.346L1554.005,815.2C1557.778,808.475 1562.332,803.15 1567.668,799.227C1573.004,795.304 1578.852,793.342 1585.212,793.342C1593.082,793.342 1600.142,796.264 1606.395,802.109C1612.647,807.954 1617.579,815.881 1621.19,825.889C1624.801,835.898 1626.607,847.227 1626.607,859.878C1626.607,872.529 1624.64,883.898 1620.705,893.987C1616.77,904.075 1611.461,912.042 1604.778,917.887C1598.094,923.732 1590.494,926.654 1581.978,926.654ZM1581.978,905.036C1587.476,905.036 1592.381,903.074 1596.693,899.151C1601.005,895.228 1604.427,889.823 1606.961,882.937C1609.494,876.052 1610.761,868.365 1610.761,859.878C1610.761,851.231 1609.494,843.544 1606.961,836.819C1604.427,830.093 1601.005,824.768 1596.693,820.845C1592.381,816.922 1587.476,814.96 1581.978,814.96C1576.588,814.96 1571.711,816.922 1567.345,820.845C1562.979,824.768 1559.556,830.093 1557.077,836.819C1554.598,843.544 1553.358,851.231 1553.358,859.878C1553.358,868.365 1554.598,876.052 1557.077,882.937C1559.556,889.823 1562.979,895.228 1567.345,899.151C1571.711,903.074 1576.588,905.036 1581.978,905.036Z" style="fill-rule:nonzero;"/>
            </g>
            <g>
                <g transform="matrix(3.583433,0,0,2.412271,-3559.683995,-1193.8896)">
                    <path d="M1661.049,925.694C1658.677,925.694 1656.71,924.533 1655.147,922.211C1653.584,919.889 1652.802,916.966 1652.802,913.443L1652.802,806.553C1652.802,802.87 1653.584,799.907 1655.147,797.665C1656.71,795.424 1658.677,794.303 1661.049,794.303C1663.528,794.303 1665.522,795.424 1667.032,797.665C1668.541,799.907 1669.295,802.87 1669.295,806.553L1669.295,913.443C1669.295,916.966 1668.541,919.889 1667.032,922.211C1665.522,924.533 1663.528,925.694 1661.049,925.694Z"/>
                </g>
                <g transform="matrix(3.583433,0,0,2.412271,-3559.683995,-1193.8896)">
                    <path d="M1661.049,772.925C1658.138,772.925 1655.632,771.363 1653.53,768.241C1651.428,765.118 1650.377,761.395 1650.377,757.071C1650.377,752.748 1651.428,749.024 1653.53,745.902C1655.632,742.779 1658.138,741.218 1661.049,741.218C1663.959,741.218 1666.466,742.779 1668.568,745.902C1670.67,749.024 1671.721,752.748 1671.721,757.071C1671.721,761.395 1670.67,765.118 1668.568,768.241C1666.466,771.363 1663.959,772.925 1661.049,772.925Z" style="fill:rgb(71,108,255);"/>
                </g>
            </g>
            <g>
                <g transform="matrix(3.583433,0,0,2.412271,-3559.683995,-1193.8896)">
                    <path d="M1709.882,925.694C1707.51,925.694 1705.543,924.533 1703.98,922.211C1702.416,919.889 1701.635,916.966 1701.635,913.443L1701.635,806.553C1701.635,802.87 1702.416,799.907 1703.98,797.665C1705.543,795.424 1707.51,794.303 1709.882,794.303C1712.361,794.303 1714.355,795.424 1715.864,797.665C1717.374,799.907 1718.128,802.87 1718.128,806.553L1718.128,913.443C1718.128,916.966 1717.374,919.889 1715.864,922.211C1714.355,924.533 1712.361,925.694 1709.882,925.694Z"/>
                </g>
                <g transform="matrix(3.583433,0,0,2.412271,-3559.683995,-1193.8896)">
                    <path d="M1709.882,772.925C1706.971,772.925 1704.465,771.363 1702.363,768.241C1700.26,765.118 1699.209,761.395 1699.209,757.071C1699.209,752.748 1700.26,749.024 1702.363,745.902C1704.465,742.779 1706.971,741.218 1709.882,741.218C1712.792,741.218 1715.298,742.779 1717.4,745.902C1719.503,749.024 1720.554,752.748 1720.554,757.071C1720.554,761.395 1719.503,765.118 1717.4,768.241C1715.298,771.363 1712.792,772.925 1709.882,772.925Z" style="fill:rgb(71,108,255);"/>
                </g>
            </g>
        </g>
        <g transform="matrix(0.090597,0,0,0.090597,570.162275,1002.947319)">
            <g transform="matrix(1,0,0,1,-4166.666667,-4166.666667)">
                <g transform="matrix(4.757921,0,0,4.832579,-737.553104,-407.604529)">
                    <g transform="matrix(0.633052,0,0,0.633052,331.231194,319.001348)">
                        <path d="M1183.991,191.543C1141.74,185.447 1099.107,182.388 1056.419,182.388C563.366,182.388 163.069,582.685 163.069,1075.738C163.069,1568.792 563.366,1969.089 1056.419,1969.089C1549.473,1969.089 1949.77,1568.792 1949.77,1075.738C1949.77,1033.05 1946.71,990.417 1940.615,948.167C1946.71,990.417 1949.77,1033.05 1949.77,1075.738C1949.77,1568.792 1549.473,1969.089 1056.419,1969.089C563.366,1969.089 163.069,1568.792 163.069,1075.738C163.069,582.685 563.366,182.388 1056.419,182.388C1099.107,182.388 1141.74,185.447 1183.991,191.543Z" style="fill:none;stroke:rgb(71,108,255);stroke-width:340.66px;"/>
                    </g>
                    <g transform="matrix(1.086173,0,0,1.086173,82.04421,-490.982991)">
                        <path d="M1337.195,653.997C1337.821,652.022 1339.654,650.68 1341.727,650.68C1343.799,650.68 1345.632,652.022 1346.258,653.997L1387.355,783.601C1390.722,794.219 1396.591,803.873 1404.468,811.75C1412.344,819.626 1421.998,825.495 1432.616,828.862L1562.221,869.959C1564.196,870.585 1565.538,872.419 1565.538,874.491C1565.538,876.563 1564.196,878.396 1562.221,879.023L1432.616,920.119C1421.998,923.486 1412.344,929.355 1404.468,937.232C1396.591,945.108 1390.722,954.762 1387.355,965.38L1346.258,1094.985C1345.632,1096.96 1343.799,1098.302 1341.727,1098.302C1339.654,1098.302 1337.821,1096.96 1337.195,1094.985L1296.098,965.38C1292.731,954.762 1286.862,945.108 1278.986,937.232C1271.109,929.355 1261.455,923.486 1250.837,920.119L1121.232,879.023C1119.257,878.396 1117.915,876.563 1117.915,874.491C1117.915,872.419 1119.257,870.585 1121.232,869.959L1250.837,828.862C1261.455,825.495 1271.109,819.626 1278.986,811.75C1286.862,803.873 1292.731,794.219 1296.098,783.601L1337.195,653.997Z" style="fill:rgb(71,108,255);"/>
                    </g>
                </g>
            </g>
        </g>
    </g>
</svg>
